<?xml version="1.0" encoding="utf-8"?>
<!-- Generator: Adobe Illustrator 18.1.1, SVG Export Plug-In . SVG Version: 6.00 Build 0)  -->
<!DOCTYPE svg PUBLIC "-//W3C//DTD SVG 1.1//EN" "http://www.w3.org/Graphics/SVG/1.1/DTD/svg11.dtd">
<svg version="1.1" id="Layer_1" xmlns="http://www.w3.org/2000/svg" xmlns:xlink="http://www.w3.org/1999/xlink" x="0px" y="0px"
	 viewBox="0 0 612 349.4" style="enable-background:new 0 0 612 349.4;" xml:space="preserve">
<style type="text/css">
	.st0{fill:#BB9D6E;}
</style>
<g>
	<path class="st0" d="M434.5,200.9C434.5,200.9,434.5,200.9,434.5,200.9c26.2-7.9,53.4-18.5,79.4-32.7c41.8-24.3,63.2,0.9,47.7,39.1
		c-13.2,36.2-83.6,103.5-144.9,118.8c-23.5-16.6-69.6-27.9-122.8-28.1c-53.2,0.2-99.3,11.5-122.8,28.1
		c-61.3-15.3-131.7-82.6-144.9-118.8c-15.5-38.2,5.9-63.5,47.7-39.1c26.1,14.3,53.3,24.9,79.4,32.8c56.2,16.9,107.6,21.1,134.6,21.1
		l14.8,0C329.7,221.8,379.9,217.3,434.5,200.9z"/>
	<g id="XMLID_1_">
		<path class="st0" d="M358.7,30.9c21.9,10.9,57.4,113.8,71.2,156c-52.8,15.3-101,19.5-127.2,19.8l-14.8,0
			c-26.3,0-75.7-4-130.1-19.8c13.8-42.1,49.4-145.1,71.3-156c25.1-12.6,46.6,8.2,63.9,10.3h-3.3c1.4,0.2,2.8,0.2,4.2,0.1
			c1.4,0.1,2.9,0.1,4.2-0.1h-3.3C312.1,39.1,333.6,18.4,358.7,30.9z M350.1,110.7c0-4.6-3.7-8.3-8.3-8.3c-4.2,0-7.6,3.1-8.2,7.2
			l-25.5-3.7L297,83.2c3-1.2,5.1-4.2,5.1-7.7c0-4.6-3.7-8.3-8.3-8.3s-8.3,3.7-8.3,8.3c0,3.5,2.2,6.5,5.2,7.7l-11.2,22.7l-25.5,3.7
			c-0.5-4-4-7.2-8.2-7.2c-4.6,0-8.3,3.7-8.3,8.3c0,4.6,3.7,8.3,8.3,8.3c2.8,0,5.3-1.4,6.8-3.5l18.1,17.7l-4.6,26.5
			c-1-0.4-2.1-0.7-3.3-0.7c-4.6,0-8.3,3.7-8.3,8.3s3.7,8.3,8.3,8.3c4.6,0,8.3-3.7,8.3-8.3c0-1.7-0.5-3.3-1.4-4.6l24.1-12.7
			l24.1,12.7c-0.9,1.3-1.5,2.9-1.5,4.7c0,4.6,3.7,8.3,8.3,8.3c4.6,0,8.3-3.7,8.3-8.3s-3.7-8.3-8.3-8.3c-1.1,0-2.2,0.2-3.2,0.6
			l-4.6-26.5l18.1-17.6c1.5,2.1,4,3.5,6.7,3.5C346.4,119,350.1,115.3,350.1,110.7z"/>
	</g>
</g>
<g>
</g>
<g>
</g>
<g>
</g>
<g>
</g>
<g>
</g>
<g>
</g>
</svg>
