<svg xmlns="http://www.w3.org/2000/svg" viewBox="0 0 612 583.5" enable-background="new 0 0 612 583.5"><style type="text/css">.st0{fill:#BB9D6E;}</style><path class="st0" d="M113.1 558.9c6.6.6 12.4-3.9 13.6-10.3-.6 7 4.6 13.2 11.5 13.8 7 .6 13.2-4.5 13.9-11.5.7-7.5 2.5-26.6 3.3-33.5h.5c45.5 3.7 96.8-30.1 107-102.1 4.4-31.1-3.6-62.1-22.5-87.2-12.8-17.1-29.7-29.9-49-37.9 1.4-2.8 2.5-5.8 2.9-9.1 1.2-8.2-1-16.4-5.9-23-5-6.6-12.3-10.9-20.5-12.1-15.3-2.2-30 7.4-34.2 22.2-.4 1.4-.7 2.8-.9 4.2-.5 3.2-.3 6.4.3 9.5-3.4.4-6.7.9-10 1.6l-8.1-22.1c8.2-5.8 14.5-14.1 17.3-24.1 1.4-4.9 1.9-10 1.6-15.1l-3.7-56.4c-.3-5.3-1.6-10.3-3.7-15l30.2-24.9 2.1 1.2c10.7 5.3 22.8 6.1 34.1 2.2l53.5-18.2c13.9-4.7 24.5-15.9 28.5-30v-.2l26.5-.5c4.3 10.8 12.9 19.9 24.4 24.7l52.3 21.5c10.8 4.5 22.8 4.5 33.6.1l11.8 14.9c-2.4 3.7-4.4 7.8-5.7 12.3-1.7 6-2.1 12.1-1.3 18.3l7.7 56c2.3 16.7 13.7 30 28.4 35.7l-.6 18.5c-39.3 1.3-77 22-98.2 58.4-6.7 11.6-11.5 23-14.7 34-14 49.2 4.7 91.8 35.7 112.3.2.1.3.2.4.3-3.7 6-13.9 22.3-18 28.7-3.8 6-2 13.9 4 17.6 6 3.8 13.8 2 17.6-4v-.1c-.4.8-.9 1.6-1.1 2.5-1.5 5.3.6 11.2 5.5 14.3 6 3.8 13.8 2 17.6-4 1.5-2.4 14.1-22.3 18.5-29.5.2 0 .4.1.5.2 40.7 20.6 101.1 8.5 137.5-54.4 27.5-47.3 18-106-19.2-142.7 2.3-2.1 4.5-4.5 6.1-7.4 1.3-2.2 2.3-4.6 3-7.1 3.9-13.7-2-28.2-14.3-35.4-14.8-8.6-33.9-3.5-42.5 11.3-1.3 2.2-2.3 4.6-3 7.1-.2.6-.2 1.2-.4 1.9-3.2-.9-6.5-1.7-9.8-2.3l.6-18.8c15.8-3.5 28.7-15.4 33.2-31.2 1.7-6 2.1-12.1 1.3-18.3l-7.7-56c-3.3-24.4-25.9-41.5-50.3-38.1-4.1.6-8 1.7-11.6 3.3l-11.4-14.4c1.8-2.6 3.4-5.5 4.6-8.5 9.5-23.1-1.7-48.9-24.3-58.2l-52.3-21.5c-11-4.5-23.1-4.5-34.2.1-11 4.6-19.6 13.2-24.1 24.2-.7 1.6-1.2 3.2-1.7 4.8l-.8 3.3-24.7.5c-.1-.3-.1-.6-.2-.8-3.8-11.3-11.8-20.4-22.5-25.7-10.7-5.3-22.8-6-34.1-2.2l-53.5 18.2c-13.9 4.7-24.5 15.9-28.5 30-2.5 8.7-2.3 17.9.7 26.6.7 2.1 1.6 4.1 2.6 6.1l-28.3 23.9c-8-5.2-17.5-7.8-27.2-7.2-18.8 1.2-34.8 14.2-40 32.3-1.4 4.9-1.9 10-1.6 15.1l3.7 56.4c1.6 24 22 42.4 45.9 41.6l8 21.7c-31.2 13.9-55.8 41-65.6 75.2-1.5 5.1-2.6 10.5-3.4 15.9-10.2 72 29.8 118.7 74.6 127.7.2 0 .4.1.6.2-1 8.4-3.1 31.9-3.4 34.7-.7 7.1 4.5 13.3 11.5 13.9zm422.4-112.8c-21.6 37.2-64.3 64.4-103.9 44.4-12.2-6.2-26.5-2.7-32.9 7.8 5.9-10.8 1.8-24.9-9.6-32.4-37.1-24.5-34.7-75-13-112.3 25.5-44 82-59 126-33.5 43.9 25.5 58.9 82 33.4 126zm-22.7-155.7c1.5-2.6 4.9-3.6 7.6-2 2.2 1.3 3.3 3.9 2.6 6.3-.1.4-.3.9-.5 1.3-1.5 2.6-4.9 3.6-7.6 2-2.7-1.5-3.6-5-2.1-7.6zm-33.1-126.9l7.7 56c.4 2.6.2 5.3-.5 7.8-1.3 4.4-4 8.1-7.7 10.6l.6-18.1c.2-7-5.3-13-12.3-13.2-6-.2-11.1 3.7-12.7 9.2-.3 1-.4 2-.5 3.1l-.5 15.2c-2.2-2.6-3.7-5.8-4.2-9.4l-7.7-56c-.2-1.3-.2-2.7-.1-4l8.8 11.2c4.4 5.5 12.4 6.5 17.9 2.1 5.5-4.4 6.5-12.4 2.1-17.9l-10.2-13c9.6-.2 18 6.7 19.3 16.4zm-144.1-117.3c4.7-2 9.9-2 14.6 0l52.2 21.5c8.2 3.4 12.9 11.9 11.5 20.5l-6.2-7.8c-4.4-5.5-12.4-6.5-17.9-2.1-2.2 1.7-3.7 4-4.4 6.5-1.1 3.8-.4 8.1 2.2 11.4l6.4 8.1c-2.1-.1-4.2-.5-6.3-1.3l-52.3-21.5c-1.1-.5-2.2-1.1-3.2-1.7l9.6-.2c7-.1 12.6-6 12.5-13-.1-7-6-12.6-13-12.5l-15.1.3c2.3-3.7 5.4-6.6 9.4-8.2zm-163.2 22.8l53.5-18.2c4.8-1.6 10-1.3 14.6.9 2.1 1 4 2.5 5.5 4.1l-10.1.2c-5.7.1-10.5 4-12 9.3-.3 1.2-.5 2.5-.5 3.8.1 7 6 12.6 13 12.5l9.9-.2c-2.2 2.5-4.9 4.4-8.1 5.5l-53.5 18.2c-1.2.4-2.5.7-3.8.9l9.3-7.6c5.5-4.5 6.2-12.5 1.7-18-4.5-5.4-12.5-6.2-18-1.7l-14.1 11.6c-1.4-8.9 4-18.3 12.6-21.3zm-102.1 157.4l-3.6-56.4c-.7-10.4 7.6-19.6 17.8-20.3 1.1-.1 2.1 0 3.2.1l-8.6 7.1c-2.1 1.7-3.5 3.9-4.1 6.3-1.1 3.9-.4 8.3 2.4 11.6 4.5 5.4 12.5 6.2 18 1.7l9.5-7.9 3.6 55.2c.1 2.2-.1 4.4-.7 6.5-.5 1.8-1.3 3.5-2.3 5.1l-4.5-12.4c-2.4-6.6-9.8-10-16.4-7.6-4 1.5-6.8 4.7-7.9 8.5-.7 2.5-.7 5.2.3 7.9l3.7 10.2c-5.8-3-9.9-8.7-10.4-15.6zm88.8 53.8c-.5-.7-1.3-2.1-1.1-4.1.4-3.1 3.3-5.1 6.3-4.7 2 .3 3.1 1.5 3.7 2.2.5.7 1.3 2.1 1.1 4.1 0 .3-.1.5-.2.8-.7 2.6-3.4 4.3-6.1 3.9-2-.4-3.1-1.5-3.7-2.2zm-104 105.8c7.1-50.3 53.8-85.5 104.1-78.4 24.4 3.4 46 16.2 60.8 35.8 14.8 19.7 21.1 43.9 17.6 68.3-7.9 56.4-46.1 83-79.6 80.2-13.5-1.1-25.4 7.4-27.5 19.5 1.4-12.2-7.7-23.7-21.1-26.4-43.6-8.6-60.3-56.4-54.3-99z" id="Your_Icon_2_"/></svg>