<?xml version="1.0" encoding="utf-8"?>
<!-- Generator: Adobe Illustrator 18.1.1, SVG Export Plug-In . SVG Version: 6.00 Build 0)  -->
<!DOCTYPE svg PUBLIC "-//W3C//DTD SVG 1.1//EN" "http://www.w3.org/Graphics/SVG/1.1/DTD/svg11.dtd">
<svg version="1.1" id="Layer_1" xmlns="http://www.w3.org/2000/svg" xmlns:xlink="http://www.w3.org/1999/xlink" x="0px" y="0px"
	 viewBox="0 0 612 583.5" style="enable-background:new 0 0 612 583.5;" xml:space="preserve">
<style type="text/css">
	.st0{fill:#BB9D6E;}
</style>
<g id="Your_Icon_2_">
	<path class="st0" d="M113.1,558.9c6.6,0.6,12.4-3.9,13.6-10.3c-0.6,7,4.6,13.2,11.5,13.8c7,0.6,13.2-4.5,13.9-11.5
		c0.7-7.5,2.5-26.6,3.3-33.5c0.2,0,0.4,0,0.5,0c45.5,3.7,96.8-30.1,107-102.1c4.4-31.1-3.6-62.1-22.5-87.2
		c-12.8-17.1-29.7-29.9-49-37.9c1.4-2.8,2.5-5.8,2.9-9.1c1.2-8.2-1-16.4-5.9-23c-5-6.6-12.3-10.9-20.5-12.1
		c-15.3-2.2-30,7.4-34.2,22.2c-0.4,1.4-0.7,2.8-0.9,4.2c-0.5,3.2-0.3,6.4,0.3,9.5c-3.4,0.4-6.7,0.9-10,1.6l-8.1-22.1
		c8.2-5.8,14.5-14.1,17.3-24.1c1.4-4.9,1.9-10,1.6-15.1l-3.7-56.4c-0.3-5.3-1.6-10.3-3.7-15l30.2-24.9c0.7,0.4,1.4,0.8,2.1,1.2
		c10.7,5.3,22.8,6.1,34.1,2.2l53.5-18.2c13.9-4.7,24.5-15.9,28.5-30c0-0.1,0-0.2,0-0.2l26.5-0.5c4.3,10.8,12.9,19.9,24.4,24.7
		l52.3,21.5c10.8,4.5,22.8,4.5,33.6,0.1l11.8,14.9c-2.4,3.7-4.4,7.8-5.7,12.3c-1.7,6-2.1,12.1-1.3,18.3l7.7,56
		c2.3,16.7,13.7,30,28.4,35.7l-0.6,18.5c-39.3,1.3-77,22-98.2,58.4c-6.7,11.6-11.5,23-14.7,34c-14,49.2,4.7,91.8,35.7,112.3
		c0.2,0.1,0.3,0.2,0.4,0.3c-3.7,6-13.9,22.3-18,28.7c-3.8,6-2,13.9,4,17.6c6,3.8,13.8,2,17.6-4l0-0.1c-0.4,0.8-0.9,1.6-1.1,2.5
		c-1.5,5.3,0.6,11.2,5.5,14.3c6,3.8,13.8,2,17.6-4c1.5-2.4,14.1-22.3,18.5-29.5c0.2,0,0.4,0.1,0.5,0.2
		c40.7,20.6,101.1,8.5,137.5-54.4c27.5-47.3,18-106-19.2-142.7c2.3-2.1,4.5-4.5,6.1-7.4c1.3-2.2,2.3-4.6,3-7.1
		c3.9-13.7-2-28.2-14.3-35.4c-14.8-8.6-33.9-3.5-42.5,11.3c-1.3,2.2-2.3,4.6-3,7.1c-0.2,0.6-0.2,1.2-0.4,1.9
		c-3.2-0.9-6.5-1.7-9.8-2.3l0.6-18.8c15.8-3.5,28.7-15.4,33.2-31.2c1.7-6,2.1-12.1,1.3-18.3l-7.7-56c-3.3-24.4-25.9-41.5-50.3-38.1
		c-4.1,0.6-8,1.7-11.6,3.3l-11.4-14.4c1.8-2.6,3.4-5.5,4.6-8.5c9.5-23.1-1.7-48.9-24.3-58.2l-52.3-21.5c-11-4.5-23.1-4.5-34.2,0.1
		c-11,4.6-19.6,13.2-24.1,24.2c-0.7,1.6-1.2,3.2-1.7,4.8c-0.3,1.1-0.5,2.2-0.8,3.3l-24.7,0.5c-0.1-0.3-0.1-0.6-0.2-0.8
		c-3.8-11.3-11.8-20.4-22.5-25.7c-10.7-5.3-22.8-6-34.1-2.2l-53.5,18.2c-13.9,4.7-24.5,15.9-28.5,30c-2.5,8.7-2.3,17.9,0.7,26.6
		c0.7,2.1,1.6,4.1,2.6,6.1L110,131.4c-8-5.2-17.5-7.8-27.2-7.2c-18.8,1.2-34.8,14.2-40,32.3c-1.4,4.9-1.9,10-1.6,15.1l3.7,56.4
		c1.6,24,22,42.4,45.9,41.6l8,21.7c-31.2,13.9-55.8,41-65.6,75.2c-1.5,5.1-2.6,10.5-3.4,15.9c-10.2,72,29.8,118.7,74.6,127.7
		c0.2,0,0.4,0.1,0.6,0.2c-1,8.4-3.1,31.9-3.4,34.7C100.9,552.1,106.1,558.3,113.1,558.9z M535.5,446.1
		c-21.6,37.2-64.3,64.4-103.9,44.4c-12.2-6.2-26.5-2.7-32.9,7.8c5.9-10.8,1.8-24.9-9.6-32.4c-37.1-24.5-34.7-75-13-112.3
		c25.5-44,82-59,126-33.5C546,345.6,561,402.1,535.5,446.1z M512.8,290.4c1.5-2.6,4.9-3.6,7.6-2c2.2,1.3,3.3,3.9,2.6,6.3
		c-0.1,0.4-0.3,0.9-0.5,1.3c-1.5,2.6-4.9,3.6-7.6,2c0,0,0,0,0,0c0,0,0,0,0,0C512.2,296.5,511.3,293,512.8,290.4z M479.7,163.5
		l7.7,56c0.4,2.6,0.2,5.3-0.5,7.8c-1.3,4.4-4,8.1-7.7,10.6l0.6-18.1c0.2-7-5.3-13-12.3-13.2c-6-0.2-11.1,3.7-12.7,9.2
		c-0.3,1-0.4,2-0.5,3.1l-0.5,15.2c-2.2-2.6-3.7-5.8-4.2-9.4l-7.7-56c-0.2-1.3-0.2-2.7-0.1-4l8.8,11.2c4.4,5.5,12.4,6.5,17.9,2.1
		c5.5-4.4,6.5-12.4,2.1-17.9l-10.2-13C470,146.9,478.4,153.8,479.7,163.5z M335.6,46.2c4.7-2,9.9-2,14.6,0l52.2,21.5
		c8.2,3.4,12.9,11.9,11.5,20.5l-6.2-7.8c-4.4-5.5-12.4-6.5-17.9-2.1c-2.2,1.7-3.7,4-4.4,6.5c-1.1,3.8-0.4,8.1,2.2,11.4l6.4,8.1
		c-2.1-0.1-4.2-0.5-6.3-1.3l-52.3-21.5c-1.1-0.5-2.2-1.1-3.2-1.7l9.6-0.2c7-0.1,12.6-6,12.5-13c-0.1-7-6-12.6-13-12.5l-15.1,0.3
		C328.5,50.7,331.6,47.8,335.6,46.2z M172.4,69l53.5-18.2c4.8-1.6,10-1.3,14.6,0.9c2.1,1,4,2.5,5.5,4.1l-10.1,0.2
		c-5.7,0.1-10.5,4-12,9.3c-0.3,1.2-0.5,2.5-0.5,3.8c0.1,7,6,12.6,13,12.5l9.9-0.2c-2.2,2.5-4.9,4.4-8.1,5.5l-53.5,18.2
		c-1.2,0.4-2.5,0.7-3.8,0.9l9.3-7.6c5.5-4.5,6.2-12.5,1.7-18c-4.5-5.4-12.5-6.2-18-1.7l-14.1,11.6C158.4,81.4,163.8,72,172.4,69z
		 M70.3,226.4L66.7,170c-0.7-10.4,7.6-19.6,17.8-20.3c1.1-0.1,2.1,0,3.2,0.1l-8.6,7.1c-2.1,1.7-3.5,3.9-4.1,6.3
		c-1.1,3.9-0.4,8.3,2.4,11.6c4.5,5.4,12.5,6.2,18,1.7l9.5-7.9l3.6,55.2c0.1,2.2-0.1,4.4-0.7,6.5c-0.5,1.8-1.3,3.5-2.3,5.1l-4.5-12.4
		c-2.4-6.6-9.8-10-16.4-7.6c-4,1.5-6.8,4.7-7.9,8.5c-0.7,2.5-0.7,5.2,0.3,7.9l3.7,10.2C74.9,239,70.8,233.3,70.3,226.4z
		 M159.1,280.2c-0.5-0.7-1.3-2.1-1.1-4.1c0.4-3.1,3.3-5.1,6.3-4.7c2,0.3,3.1,1.5,3.7,2.2c0.5,0.7,1.3,2.1,1.1,4.1
		c0,0.3-0.1,0.5-0.2,0.8c-0.7,2.6-3.4,4.3-6.1,3.9l0,0c0,0,0,0,0,0C160.8,282,159.7,280.9,159.1,280.2z M55.1,386
		c7.1-50.3,53.8-85.5,104.1-78.4c24.4,3.4,46,16.2,60.8,35.8c14.8,19.7,21.1,43.9,17.6,68.3c-7.9,56.4-46.1,83-79.6,80.2
		c-13.5-1.1-25.4,7.4-27.5,19.5c1.4-12.2-7.7-23.7-21.1-26.4C65.8,476.4,49.1,428.6,55.1,386z"/>
</g>
<g>
</g>
<g>
</g>
<g>
</g>
<g>
</g>
<g>
</g>
<g>
</g>
</svg>
