<svg xmlns="http://www.w3.org/2000/svg" viewBox="0 0 612 349.4" enable-background="new 0 0 612 349.4"><style type="text/css">.st0{fill:#BB9D6E;}</style><path class="st0" d="M434.5 200.9c26.2-7.9 53.4-18.5 79.4-32.7 41.8-24.3 63.2.9 47.7 39.1-13.2 36.2-83.6 103.5-144.9 118.8-23.5-16.6-69.6-27.9-122.8-28.1-53.2.2-99.3 11.5-122.8 28.1-61.3-15.3-131.7-82.6-144.9-118.8-15.5-38.2 5.9-63.5 47.7-39.1 26.1 14.3 53.3 24.9 79.4 32.8 56.2 16.9 107.6 21.1 134.6 21.1h14.8c27-.3 77.2-4.8 131.8-21.2z"/><path class="st0" d="M358.7 30.9c21.9 10.9 57.4 113.8 71.2 156-52.8 15.3-101 19.5-127.2 19.8h-14.8c-26.3 0-75.7-4-130.1-19.8 13.8-42.1 49.4-145.1 71.3-156 25.1-12.6 46.6 8.2 63.9 10.3h-3.3c1.4.2 2.8.2 4.2.1 1.4.1 2.9.1 4.2-.1h-3.3c17.3-2.1 38.8-22.8 63.9-10.3zm-8.6 79.8c0-4.6-3.7-8.3-8.3-8.3-4.2 0-7.6 3.1-8.2 7.2l-25.5-3.7-11.1-22.7c3-1.2 5.1-4.2 5.1-7.7 0-4.6-3.7-8.3-8.3-8.3s-8.3 3.7-8.3 8.3c0 3.5 2.2 6.5 5.2 7.7l-11.2 22.7-25.5 3.7c-.5-4-4-7.2-8.2-7.2-4.6 0-8.3 3.7-8.3 8.3 0 4.6 3.7 8.3 8.3 8.3 2.8 0 5.3-1.4 6.8-3.5l18.1 17.7-4.6 26.5c-1-.4-2.1-.7-3.3-.7-4.6 0-8.3 3.7-8.3 8.3s3.7 8.3 8.3 8.3c4.6 0 8.3-3.7 8.3-8.3 0-1.7-.5-3.3-1.4-4.6l24.1-12.7 24.1 12.7c-.9 1.3-1.5 2.9-1.5 4.7 0 4.6 3.7 8.3 8.3 8.3 4.6 0 8.3-3.7 8.3-8.3s-3.7-8.3-8.3-8.3c-1.1 0-2.2.2-3.2.6l-4.6-26.5 18.1-17.6c1.5 2.1 4 3.5 6.7 3.5 4.7-.1 8.4-3.8 8.4-8.4z" id="XMLID_1_"/></svg>